<?xml version="1.0" encoding="utf-8"?>
<!-- Generator: Adobe Illustrator 20.1.0, SVG Export Plug-In . SVG Version: 6.00 Build 0)  -->
<svg version="1.1" baseProfile="basic" id="Layer_1"
	 xmlns="http://www.w3.org/2000/svg" xmlns:xlink="http://www.w3.org/1999/xlink" x="0px" y="0px" viewBox="0 0 270 46"
	 xml:space="preserve">
<g>
	<path fill="#010101" d="M16.6,37.4c-5.1,0-9-1.5-11.5-4.4c-2.5-2.9-3.8-7.2-3.8-12.8c0-5.6,1.4-10,4.1-13.2C8.1,3.9,12,2.3,17,2.3
		s8.8,1.5,11.3,4.6c2.5,3,3.8,7.4,3.8,12.9c0,5.6-1.3,9.9-3.9,13C25.6,35.9,21.8,37.4,16.6,37.4z M22.6,21.9v-3.6
		c0-5.9-0.3-9.7-0.8-11.3c-0.6-1.8-1.5-2.9-2.6-3.3c-0.6-0.3-1.4-0.4-2.4-0.4c-0.9,0-1.7,0.1-2.4,0.4c-0.7,0.3-1.2,0.7-1.6,1.4
		c-0.4,0.7-0.8,1.3-1,2c-0.3,0.7-0.5,1.7-0.6,3c-0.2,1.9-0.3,4.7-0.3,8.3V22c0,4,0.1,6.8,0.4,8.5c0.3,1.7,0.7,2.9,1.1,3.6
		c1,1.6,2.4,2.4,4.4,2.4c2.4,0,4-1.1,4.7-3.2C22.2,31,22.6,27.3,22.6,21.9z"/>
	<path fill="#010101" d="M46,25.5h1.3v-3.8c0-3.1-0.2-5.2-0.5-6.2c-0.3-1.1-0.9-1.6-1.9-1.6c-0.6,0-1.1,0.2-1.5,0.5
		c-0.4,0.3-0.7,0.7-0.7,1.3c0,0.5,0.1,1.1,0.3,1.6h1.2c0.2,0.7,0.4,1.5,0.4,2.5c0,1-0.4,1.8-1.2,2.5c-0.8,0.7-1.7,1-2.9,1
		c-2.6,0-4-1.3-4-4c0-4,3.2-6,9.7-6c3.7,0,6.2,0.7,7.6,2c1.4,1.3,2.1,3.7,2.1,7.2v9.9c0,1.7,0.4,2.5,1.3,2.5c1,0,1.7-1.7,1.8-5
		l0.7,0c-0.1,2.9-0.6,4.8-1.5,5.9c-0.9,1.1-2.4,1.6-4.4,1.6c-3.7,0-5.8-1.2-6.4-3.6c-0.4,1.2-1,2.1-1.8,2.7c-0.8,0.6-2,0.9-3.5,0.9
		c-4.6,0-6.8-2-6.8-5.9c0-2.3,0.9-3.9,2.6-4.8C39.7,25.9,42.4,25.5,46,25.5z M44.4,34.8c0.2,0.5,0.5,0.7,1,0.7
		c0.5,0,0.9-0.4,1.3-1.2c0.4-0.8,0.6-2,0.6-3.4v-4.5H47c-1.9,0-2.9,1.5-2.9,4.4v0.8C44.2,33.2,44.3,34.3,44.4,34.8z"/>
	<path fill="#010101" d="M78.1,37v-0.9h2.1L75,24.8L74.1,25v11.1h2.1V37H63v-0.9h2.5V1.3h-2.7V0.4h11.3V24l0.7-0.3l10.4-9.1h-4.3
		v-0.9H90v0.9h-3.2l-5.5,4.9l8,16.5H91V37H78.1z"/>
	<path fill="#010101" d="M128.6,45.6c0,0,3.5-0.3,5.4-4c0.6-1.6,0.9-3.3,0.9-5.2c0-2.2-0.3-4-1-5.5c-0.7-1.5-1.7-3.5-3-5.1
		c0.5-2.5,0.8-4.9,1.2-8.9l3.4,0v-0.8h-8V17h3.4c-0.1,0-0.6,5.4-1.1,7.8c-1.4-1.5-3.9-3.1-7.4-5.5c-1.7-1.1-2.8-1.7-3.4-2.1
		c5-1.8,7.5-4.4,7.5-7.9c0-2-0.8-3.6-2.3-4.8c-1.5-1.2-3.9-1.8-7-1.8c-3.1,0-5.7,0.8-7.8,2.4c-2.1,1.6-3.1,4-3.1,7.1s1.4,6,4.1,8.6
		c-2.7,0.6-4.5,1.6-5.7,3c-1.1,1.4-1.7,3.1-1.7,5.3c0,3.2,1.2,5.5,3.7,7c2.5,1.5,5.8,2.2,9.9,2.2c4.2,0,7.4-1.4,9.8-4.3
		c0.8,1.2,1.5,2.4,1.9,3.5c-0.6-1.9-1.5-3-1.5-3s0.8,1.1,1.5,3c0.4,1.1,0.6,2.2,0.6,3.2C129.1,42.2,129.1,43.8,128.6,45.6z M114,4.9
		c0.8-0.8,1.9-1.2,3-1.2c2.7,0,4.1,1.9,4.1,5.8c0,2-0.2,3.5-0.5,4.5c-0.3,1-1.1,1.9-2.5,2.6c-2.1-1.5-3.6-2.9-4.3-4
		c-0.8-1.1-1.1-2.5-1.1-4.2S113.2,5.7,114,4.9z M117.9,37.1c-2.5,0-4.4-0.7-5.6-2.1c-1.2-1.4-1.8-3.7-1.8-7c0-3.2,0.2-5.4,0.7-6.4
		c1.2,1.1,4.1,3.2,8.5,6.3c2.6,1.8,4.6,3.6,6,5.1C123.8,35.7,121.2,37.1,117.9,37.1z"/>
	<path d="M148.7,3.3h17.2v1h-5.1v31.3h1.7c2.7,0,4.9-0.8,6.5-2.5c1.6-1.7,3.2-4.2,4.9-7.6h1L174,36.7h-25.3v-1h2.8V4.4h-2.8V3.3z"/>
	<path d="M206.7,36.7h-10.9l-0.5-3.5c-0.5,1.3-1.3,2.2-2.3,2.9c-1,0.7-2.5,1-4.5,1c-4.9,0-7.4-2.7-7.4-8V14.8h-2.7V14h11.5v16.4
		c0,1.9,0.1,3.2,0.4,3.8c0.3,0.6,0.8,0.9,1.6,0.9s1.5-0.5,2.2-1.5c0.6-1,1-2.4,1-4.1V14.8H193V14h11.1v21.8h2.6V36.7z"/>
	<path d="M210.7,14h11.5v4.4c0.5-1.5,1.3-2.6,2.3-3.5c1-0.9,2.6-1.3,4.8-1.3c4.9,0,7.4,2.7,7.4,8v14.4h2.7v0.9h-13.5v-0.9h2V20.3
		c0-1.9-0.1-3.1-0.4-3.7c-0.3-0.6-0.7-0.8-1.4-0.8c-1,0-1.9,0.7-2.7,2c-0.8,1.3-1.2,3-1.2,4.9v13.2h2.1v0.9h-13.5v-0.9h2.6v-21h-2.6
		V14z"/>
	<path d="M254.4,25.5h1.4v-3.7c0-3-0.2-5-0.5-6.1c-0.3-1-1-1.5-1.9-1.5c-0.6,0-1.1,0.2-1.5,0.5c-0.5,0.3-0.7,0.7-0.7,1.2
		c0,0.5,0.1,1.1,0.3,1.6h1.2c0.3,0.7,0.4,1.5,0.4,2.4c0,0.9-0.4,1.7-1.2,2.4c-0.8,0.7-1.8,1-3,1c-2.7,0-4.1-1.3-4.1-4
		c0-3.9,3.3-5.9,10-5.9c3.8,0,6.4,0.6,7.8,1.9s2.2,3.6,2.2,7.1v9.7c0,1.7,0.5,2.5,1.4,2.5c1.1,0,1.7-1.6,1.9-4.9l0.7,0
		c-0.1,2.8-0.7,4.7-1.6,5.8c-0.9,1-2.4,1.6-4.5,1.6c-3.8,0-6-1.2-6.6-3.5c-0.4,1.2-1,2.1-1.9,2.7c-0.8,0.6-2,0.9-3.6,0.9
		c-4.7,0-7.1-1.9-7.1-5.8c0-2.3,0.9-3.8,2.7-4.6C248,25.9,250.7,25.5,254.4,25.5z M252.8,34.5c0.2,0.5,0.5,0.7,1,0.7
		c0.5,0,1-0.4,1.4-1.2c0.4-0.8,0.6-1.9,0.6-3.4v-4.4h-0.3c-2,0-3,1.4-3,4.3v0.8C252.5,33,252.6,34.1,252.8,34.5z"/>
</g>
</svg>
